<?xml version="1.0" standalone="no"?>
<!DOCTYPE svg PUBLIC "-//W3C//DTD SVG 20010904//EN"
 "http://www.w3.org/TR/2001/REC-SVG-20010904/DTD/svg10.dtd">
<svg version="1.0" xmlns="http://www.w3.org/2000/svg"
 width="512.000000pt" height="512.000000pt" viewBox="0 0 512.000000 512.000000"
 preserveAspectRatio="xMidYMid meet">
<metadata>
Created by potrace 1.11, written by Peter Selinger 2001-2013
</metadata>
<g transform="translate(0.000000,512.000000) scale(0.100000,-0.100000)"
fill="#000000" stroke="none">
<path d="M2467 5104 c-1 -1 -46 -5 -101 -9 -54 -4 -106 -8 -116 -10 -9 -2 -41
-6 -71 -10 -53 -7 -119 -18 -169 -30 -14 -4 -38 -9 -55 -12 -50 -9 -289 -84
-300 -94 -5 -5 -16 -9 -24 -9 -23 0 -327 -154 -426 -216 -227 -142 -423 -314
-614 -539 -235 -276 -418 -638 -511 -1005 -31 -124 -40 -179 -68 -421 -9 -71
-7 -344 2 -424 3 -27 8 -75 12 -105 3 -30 8 -64 10 -75 37 -190 37 -191 69
-300 90 -309 242 -604 453 -874 123 -159 323 -347 537 -505 22 -17 43 -34 46
-39 13 -18 275 -156 442 -231 38 -17 267 -95 300 -101 9 -2 21 -6 25 -9 6 -4
56 -13 112 -21 8 -1 34 -7 58 -14 23 -6 61 -14 85 -17 23 -3 56 -7 72 -9 239
-30 575 -23 760 16 28 6 63 13 79 15 41 6 211 49 271 69 81 28 293 114 348
142 409 205 761 519 1014 903 144 219 300 580 339 785 2 11 6 31 9 45 6 28 8
40 30 155 21 110 29 223 29 405 0 147 -9 293 -19 309 -2 4 -7 34 -10 67 -26
268 -161 641 -337 934 -21 36 -44 74 -51 85 -7 11 -15 22 -18 25 -3 3 -32 42
-64 88 -32 45 -62 82 -66 82 -5 0 -15 13 -23 29 -20 38 -264 283 -351 352
-205 162 -417 287 -645 382 -87 35 -257 94 -298 102 -12 2 -26 6 -30 9 -5 3
-24 8 -43 11 -19 3 -61 12 -94 19 -33 8 -82 17 -108 21 -27 3 -57 8 -67 10
-57 11 -414 27 -423 19z"/>
</g>
</svg>
